<svg xmlns="http://www.w3.org/2000/svg" fill="none" viewBox="0 0 512 512"><rect width="414.644" height="414.644" x="53.305" y="45.203" fill="#fff" stroke="#173B65" stroke-width="6.61" rx="5.471"/><path stroke="#173B65" stroke-width="6.61" d="M193.723 41.898v421.255M50 179.012h421.254M50 319.43h421.254M334.141 41.898v421.255"/><path fill="#173B65" d="M100.684 148v-12.357h21.343V78.465l-21.455 15.951V79.588l18.872-13.592h16.625v69.647h17.187V148h-52.572ZM259.988 293.052c-7.564 0-13.63-1.872-18.198-5.617-4.568-3.819-7.077-8.987-7.526-15.502h14.041c.3 2.846 1.423 5.055 3.37 6.628 2.022 1.497 4.793 2.246 8.313 2.246 3.894 0 6.853-1.011 8.875-3.033 2.022-2.097 3.033-4.98 3.033-8.649v-7.976c0-3.745-1.011-6.59-3.033-8.538-2.022-2.022-4.981-3.033-8.875-3.033-2.396 0-4.456.487-6.178 1.461-1.723.973-3.033 2.321-3.932 4.044h-13.705l.562-45.159h46.169v12.694H249.99l-.224 23.815h3.257l-3.37 2.808c0-3.445 1.348-6.141 4.044-8.088 2.771-2.022 6.478-3.033 11.122-3.033 6.665-.075 11.832 1.947 15.502 6.066 3.744 4.044 5.616 9.699 5.616 16.963v7.976c0 7.414-2.321 13.255-6.964 17.524-4.569 4.268-10.897 6.403-18.985 6.403ZM385.69 435.857l24.265-38.194-.674-.449c-1.498 2.321-3.52 4.081-6.066 5.28-2.547 1.198-5.393 1.797-8.538 1.797-4.343 0-8.163-1.048-11.458-3.145-3.22-2.097-5.729-5.018-7.526-8.762-1.798-3.745-2.696-8.126-2.696-13.144 0-5.392 1.123-10.035 3.37-13.929 2.321-3.969 5.541-7.04 9.66-9.212 4.119-2.246 8.912-3.37 14.379-3.37 5.617 0 10.485 1.161 14.604 3.483 4.119 2.247 7.301 5.429 9.548 9.548 2.322 4.119 3.482 8.95 3.482 14.491 0 3.82-.636 7.901-1.909 12.245a47.214 47.214 0 0 1-5.505 12.02l-19.321 31.341H385.69Zm14.829-42.238c4.118 0 7.451-1.31 9.997-3.932 2.547-2.696 3.82-6.253 3.82-10.671 0-4.269-1.273-7.714-3.82-10.335-2.546-2.696-5.879-4.044-9.997-4.044-4.119 0-7.452 1.348-9.998 4.044-2.547 2.621-3.82 6.066-3.82 10.335 0 4.418 1.273 7.975 3.82 10.671 2.546 2.622 5.879 3.932 9.998 3.932Z"/><path fill="#F097A9" d="M458.665 235.059c-16.254 21.57-46.917 25.88-68.487 9.625-21.851-16.465-26.216-47.526-9.751-69.377l4.58-6.078c16.36-21.71 47.222-26.047 68.933-9.688 21.71 16.36 26.047 47.222 9.688 68.933l-4.963 6.585Z"/><path fill="#ED758B" d="m452.693 242.984-21.865-21.061s13.749-15.736 17.982-27.365c5.287-14.521-1.267-40.251-1.267-40.251l20.838 17.358 8.21 21.491-4.415 23.973-19.483 25.855Z"/><path stroke="#173B65" stroke-width="6.61" d="M339.863 392.712c-9.603 12.744-29.75 8.199-32.952-7.433-2.524-12.323-13.893-20.839-26.392-20.033-16.426 1.06-26.651-17.596-16.875-30.569l124.27-164.912c15.921-21.127 45.954-25.347 67.081-9.427 21.126 15.92 25.347 45.953 9.427 67.08L339.863 392.712Z"/><path fill="#ECA24B" d="M335.311 393.279a6.608 6.608 0 0 1-9.253 1.301l-5.446-4.104-6.161-4.643a6.606 6.606 0 0 1-1.3-9.252l112.23-148.935a6.607 6.607 0 0 1 9.619-1.004l10.982 9.576a6.606 6.606 0 0 1 .934 8.955L335.311 393.279Z"/><path fill="#FBEB7F" d="M264.744 338.782a6.607 6.607 0 0 0 1.3 9.253l5.429 4.091 6.142 4.628a6.607 6.607 0 0 0 9.253-1.3l112.331-149.068a6.607 6.607 0 0 0-1.557-9.436l-11.987-8.167a6.607 6.607 0 0 0-8.997 1.483L264.744 338.782Z"/><path fill="#F3D35F" d="m310.995 379.426-13.276-10.005-14.162-10.671 119.284-158.296 27.438 20.676-119.284 158.296Z"/><path fill="#EDF2F7" stroke="#173B65" stroke-width="6.607" d="M430.443 270.013a617.533 617.533 0 0 0-9.521-9.189c-7.642-7.217-17.414-16.052-25.705-22.27-8.082-6.061-19-12.818-27.824-18.024a618.022 618.022 0 0 0-11.177-6.433c-.426-.24-.83-.462-1.204-.671l20.638-27.387c.575.32 1.241.687 1.983 1.104a603.596 603.596 0 0 1 11.055 6.364c8.786 5.183 19.442 11.788 27.217 17.619 7.977 5.982 17.524 14.601 25.133 21.787a610.667 610.667 0 0 1 9.417 9.089c.644.635 1.212 1.205 1.702 1.693l-20.638 27.388c-.333-.33-.69-.689-1.076-1.07Z"/><path fill="#BAC8CE" d="m431.019 266.189-9.91-9.58-10.572-9.58 16.848-22.133 10.571 9.58 9.91 9.58-16.847 22.133Z"/><path fill="#DAE5EA" d="M410.582 247.08s-7.984-6.797-13.245-10.782c-5.466-4.139-14.499-10.035-14.499-10.035l16.798-22.179s9.171 5.871 14.535 9.911c5.365 4.04 13.214 10.901 13.214 10.901l-16.803 22.184Z"/><path fill="#F8D5B1" d="M241.136 444.95c-.964.457-2.044-.357-1.87-1.409l16.828-101.877c.148-.896 1.121-1.385 1.916-.946 6.013 3.322 27.455 15.358 40.714 25.324 13.446 10.108 31.192 27.647 36.084 32.549.642.644.44 1.713-.381 2.102l-93.291 44.257Z"/><path fill="#ECBC96" d="M287.446 423.032c-1.01.552-2.205-.355-1.945-1.476 1.438-6.188 4.607-20.671 4.621-28.127.022-12.078-2.942-27.721-4.488-35.049-.267-1.268 1.274-2.166 2.239-1.302 7.077 6.337 24.033 21.434 29.443 25.5 5.475 4.116 12.543 11.024 15.35 13.825a1.306 1.306 0 0 1-.303 2.072l-44.917 24.557Z"/><path stroke="#173B65" stroke-width="6.607" d="M259.988 343.437c8.17 4.568 26.652 15.176 38.484 24.07 12.013 9.03 27.555 24.1 34.266 30.755l-88.949 42.356 16.199-97.181Z"/><path fill="#173B65" stroke="#173B65" stroke-width="6.607" d="M248.576 411.48c3.415 1.974 8.196 4.856 11.493 7.335 3.358 2.524 7.528 6.396 10.407 9.171l-26.703 12.653 4.803-29.159Z"/></svg>